# MagicaVoxel @ Ephtracy

# group
o 

# material
mtllib toolbox-1.mtl
usemtl palette

# normals
vn -1 0 0
vn 1 0 0
vn 0 0 1
vn 0 0 -1
vn 0 -1 0
vn 0 1 0

# texcoords
vt 0.962891 0.5
vt 0.974609 0.5

# verts
v -8.3 0 5.1
v -8.3 0 -5.1
v -8.3 5.6 5.1
v -8.3 5.6 -5.1
v -6.3 5.1 -5.1
v -6.3 5.1 -5.3
v -6.3 5.6 -4.9
v -6.3 5.6 -5.1
v -6.3 5.7 -4.9
v -6.3 5.7 -5.3
v 4.8 5.1 -5.1
v 4.8 5.1 -5.3
v 4.8 5.6 -4.9
v 4.8 5.6 -5.1
v 4.8 5.7 -4.9
v 4.8 5.7 -5.3
v 7.9 0.3 4.8
v 7.9 0.3 -4.8
v 7.9 5.6 4.8
v 7.9 5.6 -4.8
v -7.9 0.3 4.8
v -7.9 0.3 -4.8
v -7.9 5.6 4.8
v -7.9 5.6 -4.8
v -4.8 5.1 -5.1
v -4.8 5.1 -5.3
v -4.8 5.6 -4.9
v -4.8 5.6 -5.1
v -4.8 5.7 -4.9
v -4.8 5.7 -5.3
v 6.3 5.1 -5.1
v 6.3 5.1 -5.3
v 6.3 5.6 -4.9
v 6.3 5.6 -5.1
v 6.3 5.7 -4.9
v 6.3 5.7 -5.3
v 8.3 0 5.1
v 8.3 0 -5.1
v 8.3 5.6 5.1
v 8.3 5.6 -5.1
v -8.3 0 5.1
v -8.3 5.6 5.1
v 8.3 0 5.1
v 8.3 5.6 5.1
v -7.9 0.3 -4.8
v -7.9 5.6 -4.8
v 7.9 0.3 -4.8
v 7.9 5.6 -4.8
v -6.3 5.6 -4.9
v -6.3 5.7 -4.9
v -4.8 5.6 -4.9
v -4.8 5.7 -4.9
v 4.8 5.6 -4.9
v 4.8 5.7 -4.9
v 6.3 5.6 -4.9
v 6.3 5.7 -4.9
v -7.9 0.3 4.8
v -7.9 5.6 4.8
v 7.9 0.3 4.8
v 7.9 5.6 4.8
v -8.3 0 -5.1
v -8.3 5.6 -5.1
v -6.3 5.1 -5.1
v -6.3 5.6 -5.1
v -4.8 5.1 -5.1
v -4.8 5.6 -5.1
v 4.8 5.1 -5.1
v 4.8 5.6 -5.1
v 6.3 5.1 -5.1
v 6.3 5.6 -5.1
v 8.3 0 -5.1
v 8.3 5.6 -5.1
v -6.3 5.1 -5.3
v -6.3 5.7 -5.3
v -4.8 5.1 -5.3
v -4.8 5.7 -5.3
v 4.8 5.1 -5.3
v 4.8 5.7 -5.3
v 6.3 5.1 -5.3
v 6.3 5.7 -5.3
v -8.3 0 5.1
v 8.3 0 5.1
v -8.3 0 -5.1
v 8.3 0 -5.1
v -6.3 5.1 -5.1
v -4.8 5.1 -5.1
v 4.8 5.1 -5.1
v 6.3 5.1 -5.1
v -6.3 5.1 -5.3
v -4.8 5.1 -5.3
v 4.8 5.1 -5.3
v 6.3 5.1 -5.3
v -7.9 0.3 4.8
v 7.9 0.3 4.8
v -7.9 0.3 -4.8
v 7.9 0.3 -4.8
v -8.3 5.6 5.1
v 8.3 5.6 5.1
v -7.9 5.6 4.8
v 7.9 5.6 4.8
v -7.9 5.6 -4.8
v 7.9 5.6 -4.8
v -6.3 5.6 -4.9
v -4.8 5.6 -4.9
v 4.8 5.6 -4.9
v 6.3 5.6 -4.9
v -8.3 5.6 -5.1
v -6.3 5.6 -5.1
v -4.8 5.6 -5.1
v 4.8 5.6 -5.1
v 6.3 5.6 -5.1
v 8.3 5.6 -5.1
v -6.3 5.7 -4.9
v -4.8 5.7 -4.9
v 4.8 5.7 -4.9
v 6.3 5.7 -4.9
v -6.3 5.7 -5.3
v -4.8 5.7 -5.3
v 4.8 5.7 -5.3
v 6.3 5.7 -5.3

# faces
f 3/1/1 2/1/1 1/1/1
f 4/1/1 2/1/1 3/1/1
f 8/2/1 6/2/1 5/2/1
f 9/2/1 8/2/1 7/2/1
f 10/2/1 6/2/1 8/2/1
f 10/2/1 8/2/1 9/2/1
f 14/2/1 12/2/1 11/2/1
f 15/2/1 14/2/1 13/2/1
f 16/2/1 12/2/1 14/2/1
f 16/2/1 14/2/1 15/2/1
f 19/1/1 18/1/1 17/1/1
f 20/1/1 18/1/1 19/1/1
f 21/1/2 22/1/2 23/1/2
f 23/1/2 22/1/2 24/1/2
f 25/2/2 26/2/2 28/2/2
f 27/2/2 28/2/2 29/2/2
f 28/2/2 26/2/2 30/2/2
f 29/2/2 28/2/2 30/2/2
f 31/2/2 32/2/2 34/2/2
f 33/2/2 34/2/2 35/2/2
f 34/2/2 32/2/2 36/2/2
f 35/2/2 34/2/2 36/2/2
f 37/1/2 38/1/2 39/1/2
f 39/1/2 38/1/2 40/1/2
f 43/1/3 42/1/3 41/1/3
f 44/1/3 42/1/3 43/1/3
f 47/1/3 46/1/3 45/1/3
f 48/1/3 46/1/3 47/1/3
f 51/2/3 50/2/3 49/2/3
f 52/2/3 50/2/3 51/2/3
f 55/2/3 54/2/3 53/2/3
f 56/2/3 54/2/3 55/2/3
f 57/1/4 58/1/4 59/1/4
f 59/1/4 58/1/4 60/1/4
f 61/1/4 62/1/4 63/1/4
f 63/1/4 62/1/4 64/1/4
f 61/1/4 63/1/4 65/1/4
f 61/1/4 65/1/4 67/1/4
f 65/1/4 66/1/4 67/1/4
f 67/1/4 66/1/4 68/1/4
f 61/1/4 67/1/4 69/1/4
f 61/1/4 69/1/4 71/1/4
f 69/1/4 70/1/4 71/1/4
f 71/1/4 70/1/4 72/1/4
f 73/2/4 74/2/4 75/2/4
f 75/2/4 74/2/4 76/2/4
f 77/2/4 78/2/4 79/2/4
f 79/2/4 78/2/4 80/2/4
f 83/1/5 82/1/5 81/1/5
f 84/1/5 82/1/5 83/1/5
f 89/2/5 86/2/5 85/2/5
f 90/2/5 86/2/5 89/2/5
f 91/2/5 88/2/5 87/2/5
f 92/2/5 88/2/5 91/2/5
f 93/1/6 94/1/6 95/1/6
f 95/1/6 94/1/6 96/1/6
f 97/1/6 98/1/6 99/1/6
f 99/1/6 98/1/6 100/1/6
f 97/1/6 99/1/6 101/1/6
f 100/1/6 98/1/6 102/1/6
f 101/1/6 102/1/6 103/1/6
f 103/1/6 102/1/6 104/1/6
f 104/1/6 102/1/6 105/1/6
f 105/1/6 102/1/6 106/1/6
f 97/1/6 101/1/6 107/1/6
f 101/1/6 103/1/6 107/1/6
f 107/1/6 103/1/6 108/1/6
f 104/1/6 105/1/6 109/1/6
f 109/1/6 105/1/6 110/1/6
f 106/1/6 102/1/6 111/1/6
f 102/1/6 98/1/6 112/1/6
f 111/1/6 102/1/6 112/1/6
f 113/2/6 114/2/6 117/2/6
f 117/2/6 114/2/6 118/2/6
f 115/2/6 116/2/6 119/2/6
f 119/2/6 116/2/6 120/2/6
