# MagicaVoxel @ Ephtracy

# group
o 

# material
mtllib whiteBoard.mtl
usemtl palette

# normals
vn -1 0 0
vn 1 0 0
vn 0 0 1
vn 0 0 -1
vn 0 -1 0
vn 0 1 0

# texcoords
vt 0.958984 0.5
vt 0.966797 0.5

# verts
v 11.9 0 9
v 11.9 0 -9
v 11.9 0.5 8.5
v 11.9 0.5 -8.5
v 11.9 10.5 8.5
v 11.9 10.5 -8.5
v 11.9 11 9
v 11.9 11 -9
v 12 0.5 8.6
v 12 0.5 8.5
v 12 0.5 -8.5
v 12 10.5 8.5
v 12 10.5 -8.5
v 12 10.6 8.6
v 12 10.6 -8.5
v 12.3 0 9
v 12.3 0 -9
v 12.3 0.5 8.6
v 12.3 0.5 -8.5
v 12.3 10.6 8.6
v 12.3 10.6 -8.5
v 12.3 11 9
v 12.3 11 -9
v 11.9 0 9
v 11.9 11 9
v 12.3 0 9
v 12.3 11 9
v 12 0.5 -8.5
v 12 10.5 -8.5
v 12 10.6 -8.5
v 12.3 0.5 -8.5
v 12.3 10.6 -8.5
v 12 0.5 8.6
v 12 10.6 8.6
v 12.3 0.5 8.6
v 12.3 10.6 8.6
v 11.9 0 -9
v 11.9 11 -9
v 12.3 0 -9
v 12.3 11 -9
v 11.9 0 9
v 12.3 0 9
v 11.9 0 -9
v 12.3 0 -9
v 12 10.6 8.6
v 12.3 10.6 8.6
v 12 10.6 -8.5
v 12.3 10.6 -8.5
v 12 0.5 8.6
v 12.3 0.5 8.6
v 12 0.5 8.5
v 12 0.5 -8.5
v 12.3 0.5 -8.5
v 11.9 11 9
v 12.3 11 9
v 11.9 11 -9
v 12.3 11 -9

# faces
f 3/2/1 2/2/1 1/2/1
f 4/2/1 2/2/1 3/2/1
f 5/2/1 3/2/1 1/2/1
f 5/1/1 4/1/1 3/1/1
f 6/2/1 2/2/1 4/2/1
f 6/1/1 4/1/1 5/1/1
f 7/2/1 5/2/1 1/2/1
f 7/2/1 6/2/1 5/2/1
f 8/2/1 2/2/1 6/2/1
f 8/2/1 6/2/1 7/2/1
f 9/2/2 10/2/2 12/2/2
f 10/1/2 11/1/2 12/1/2
f 12/1/2 11/1/2 13/1/2
f 9/2/2 12/2/2 14/2/2
f 12/2/2 13/2/2 14/2/2
f 14/2/2 13/2/2 15/2/2
f 16/2/2 17/2/2 18/2/2
f 18/2/2 17/2/2 19/2/2
f 16/2/2 18/2/2 20/2/2
f 19/2/2 17/2/2 21/2/2
f 16/2/2 20/2/2 22/2/2
f 20/2/2 21/2/2 22/2/2
f 21/2/2 17/2/2 23/2/2
f 22/2/2 21/2/2 23/2/2
f 26/2/3 25/2/3 24/2/3
f 27/2/3 25/2/3 26/2/3
f 31/2/3 29/2/3 28/2/3
f 31/2/3 30/2/3 29/2/3
f 32/2/3 30/2/3 31/2/3
f 33/2/4 34/2/4 35/2/4
f 35/2/4 34/2/4 36/2/4
f 37/2/4 38/2/4 39/2/4
f 39/2/4 38/2/4 40/2/4
f 43/2/5 42/2/5 41/2/5
f 44/2/5 42/2/5 43/2/5
f 47/2/5 46/2/5 45/2/5
f 48/2/5 46/2/5 47/2/5
f 49/2/6 50/2/6 51/2/6
f 51/2/6 50/2/6 52/2/6
f 52/2/6 50/2/6 53/2/6
f 54/2/6 55/2/6 56/2/6
f 56/2/6 55/2/6 57/2/6
