# MagicaVoxel @ Ephtracy

# group
o 

# material
mtllib メジャーくんver2-2.mtl
usemtl palette

# normals
vn -1 0 0
vn 1 0 0
vn 0 0 1
vn 0 0 -1
vn 0 -1 0
vn 0 1 0

# texcoords
vt 0.0410156 0.5
vt 0.853516 0.5
vt 0.966797 0.5
vt 0.990234 0.5
vt 0.994141 0.5

# verts
v -0.8 0.4 0.6
v -0.8 0.4 -8.19564e-008
v -0.8 1.4 0.6
v -0.8 1.4 -8.19564e-008
v -0.7 0.3 0.6
v -0.7 0.3 -8.19564e-008
v -0.7 0.4 0.6
v -0.7 0.4 -8.19564e-008
v -0.7 1.4 0.6
v -0.7 1.4 -8.19564e-008
v -0.7 1.5 0.6
v -0.7 1.5 -8.19564e-008
v -0.6 0 0.5
v -0.6 0 0.2
v -0.6 0.1 0.5
v -0.6 0.1 0.2
v -0.6 0.2 0.6
v -0.6 0.2 -8.19564e-008
v -0.6 0.3 0.6
v -0.6 0.3 -8.19564e-008
v -0.6 1.5 0.6
v -0.6 1.5 -8.19564e-008
v -0.6 1.6 0.6
v -0.6 1.6 -8.19564e-008
v -0.5 0.1 0.3
v -0.5 0.1 0.2
v -0.5 0.2 0.3
v -0.5 0.2 0.2
v -0.5 1.6 0.6
v -0.5 1.6 -8.19564e-008
v -0.5 1.7 0.6
v -0.5 1.7 -8.19564e-008
v -0.3 1.7 0.6
v -0.3 1.7 -8.19564e-008
v -0.3 1.8 0.6
v -0.3 1.8 -8.19564e-008
v 0.3 0 0.5
v 0.3 0 0.2
v 0.3 0.1 0.5
v 0.3 0.1 0.2
v 0.4 0.1 0.3
v 0.4 0.1 0.2
v 0.4 0.2 0.3
v 0.4 0.2 0.2
v -0.4 0.1 0.3
v -0.4 0.1 0.2
v -0.4 0.2 0.3
v -0.4 0.2 0.2
v -0.3 0 0.5
v -0.3 0 0.2
v -0.3 0.1 0.5
v -0.3 0.1 0.2
v 0.3 1.7 0.6
v 0.3 1.7 -8.19564e-008
v 0.3 1.8 0.6
v 0.3 1.8 -8.19564e-008
v 0.5 0.1 0.3
v 0.5 0.1 0.2
v 0.5 0.2 0.3
v 0.5 0.2 0.2
v 0.5 1.6 0.6
v 0.5 1.6 -8.19564e-008
v 0.5 1.7 0.6
v 0.5 1.7 -8.19564e-008
v 0.6 0 0.5
v 0.6 0 0.2
v 0.6 0.1 0.5
v 0.6 0.1 0.2
v 0.6 0.2 0.6
v 0.6 0.2 -8.19564e-008
v 0.6 0.3 0.6
v 0.6 0.3 -8.19564e-008
v 0.6 1.5 0.6
v 0.6 1.5 -8.19564e-008
v 0.6 1.6 0.6
v 0.6 1.6 -8.19564e-008
v 0.7 0.3 0.6
v 0.7 0.3 -8.19564e-008
v 0.7 0.4 0.6
v 0.7 0.4 -8.19564e-008
v 0.7 1.4 0.6
v 0.7 1.4 -8.19564e-008
v 0.7 1.5 0.6
v 0.7 1.5 -8.19564e-008
v 0.8 0.4 0.6
v 0.8 0.4 -8.19564e-008
v 0.8 1.4 0.6
v 0.8 1.4 -8.19564e-008
v -0.8 0.4 0.6
v -0.8 1.4 0.6
v -0.7 0.3 0.6
v -0.7 0.4 0.6
v -0.7 0.7 0.6
v -0.7 1.2 0.6
v -0.7 1.4 0.6
v -0.7 1.5 0.6
v -0.6 0.2 0.6
v -0.6 0.3 0.6
v -0.6 0.6 0.6
v -0.6 0.7 0.6
v -0.6 1.2 0.6
v -0.6 1.3 0.6
v -0.6 1.5 0.6
v -0.6 1.6 0.6
v -0.5 0.5 0.6
v -0.5 0.6 0.6
v -0.5 1.3 0.6
v -0.5 1.4 0.6
v -0.5 1.6 0.6
v -0.5 1.7 0.6
v -0.4 0.4 0.6
v -0.4 0.5 0.6
v -0.4 1.4 0.6
v -0.4 1.5 0.6
v -0.3 0.8 0.6
v -0.3 0.9 0.6
v -0.3 1 0.6
v -0.3 1.3 0.6
v -0.3 1.7 0.6
v -0.3 1.8 0.6
v -0.2 0.7 0.6
v -0.2 0.8 0.6
v -0.2 0.9 0.6
v -0.2 1 0.6
v -0.2 1.3 0.6
v -0.1 0.6 0.6
v -0.1 0.7 0.6
v 0.1 0.6 0.6
v 0.1 0.7 0.6
v 0.2 0.7 0.6
v 0.2 0.8 0.6
v 0.2 0.9 0.6
v 0.2 1 0.6
v 0.2 1.3 0.6
v 0.3 0.8 0.6
v 0.3 0.9 0.6
v 0.3 1 0.6
v 0.3 1.3 0.6
v 0.3 1.7 0.6
v 0.3 1.8 0.6
v 0.4 0.4 0.6
v 0.4 0.5 0.6
v 0.4 1.4 0.6
v 0.4 1.5 0.6
v 0.5 0.5 0.6
v 0.5 0.6 0.6
v 0.5 1.3 0.6
v 0.5 1.4 0.6
v 0.5 1.6 0.6
v 0.5 1.7 0.6
v 0.6 0.2 0.6
v 0.6 0.3 0.6
v 0.6 0.6 0.6
v 0.6 0.7 0.6
v 0.6 1.2 0.6
v 0.6 1.3 0.6
v 0.6 1.5 0.6
v 0.6 1.6 0.6
v 0.7 0.3 0.6
v 0.7 0.4 0.6
v 0.7 0.7 0.6
v 0.7 1.2 0.6
v 0.7 1.4 0.6
v 0.7 1.5 0.6
v 0.8 0.4 0.6
v 0.8 1.4 0.6
v -0.6 0 0.5
v -0.6 0.1 0.5
v -0.3 0 0.5
v -0.3 0.1 0.5
v 0.3 0 0.5
v 0.3 0.1 0.5
v 0.6 0 0.5
v 0.6 0.1 0.5
v -0.5 0.1 0.3
v -0.5 0.2 0.3
v -0.4 0.1 0.3
v -0.4 0.2 0.3
v 0.4 0.1 0.3
v 0.4 0.2 0.3
v 0.5 0.1 0.3
v 0.5 0.2 0.3
v -0.6 0 0.2
v -0.6 0.1 0.2
v -0.5 0.1 0.2
v -0.5 0.2 0.2
v -0.4 0.1 0.2
v -0.4 0.2 0.2
v -0.3 0 0.2
v -0.3 0.1 0.2
v 0.3 0 0.2
v 0.3 0.1 0.2
v 0.4 0.1 0.2
v 0.4 0.2 0.2
v 0.5 0.1 0.2
v 0.5 0.2 0.2
v 0.6 0 0.2
v 0.6 0.1 0.2
v -0.8 0.4 -8.19564e-008
v -0.8 1.4 -8.19564e-008
v -0.7 0.3 -8.19564e-008
v -0.7 0.4 -8.19564e-008
v -0.7 1.4 -8.19564e-008
v -0.7 1.5 -8.19564e-008
v -0.6 0.2 -8.19564e-008
v -0.6 0.3 -8.19564e-008
v -0.6 1.5 -8.19564e-008
v -0.6 1.6 -8.19564e-008
v -0.5 1.6 -8.19564e-008
v -0.5 1.7 -8.19564e-008
v -0.3 1.7 -8.19564e-008
v -0.3 1.8 -8.19564e-008
v 0.3 1.7 -8.19564e-008
v 0.3 1.8 -8.19564e-008
v 0.5 1.6 -8.19564e-008
v 0.5 1.7 -8.19564e-008
v 0.6 0.2 -8.19564e-008
v 0.6 0.3 -8.19564e-008
v 0.6 1.5 -8.19564e-008
v 0.6 1.6 -8.19564e-008
v 0.7 0.3 -8.19564e-008
v 0.7 0.4 -8.19564e-008
v 0.7 1.4 -8.19564e-008
v 0.7 1.5 -8.19564e-008
v 0.8 0.4 -8.19564e-008
v 0.8 1.4 -8.19564e-008
v -0.6 0 0.5
v -0.3 0 0.5
v 0.3 0 0.5
v 0.6 0 0.5
v -0.6 0 0.2
v -0.3 0 0.2
v 0.3 0 0.2
v 0.6 0 0.2
v -0.6 0.2 0.6
v 0.6 0.2 0.6
v -0.5 0.2 0.3
v -0.4 0.2 0.3
v 0.4 0.2 0.3
v 0.5 0.2 0.3
v -0.5 0.2 0.2
v -0.4 0.2 0.2
v 0.4 0.2 0.2
v 0.5 0.2 0.2
v -0.6 0.2 -8.19564e-008
v 0.6 0.2 -8.19564e-008
v -0.7 0.3 0.6
v -0.6 0.3 0.6
v 0.6 0.3 0.6
v 0.7 0.3 0.6
v -0.7 0.3 -8.19564e-008
v -0.6 0.3 -8.19564e-008
v 0.6 0.3 -8.19564e-008
v 0.7 0.3 -8.19564e-008
v -0.8 0.4 0.6
v -0.7 0.4 0.6
v 0.7 0.4 0.6
v 0.8 0.4 0.6
v -0.8 0.4 -8.19564e-008
v -0.7 0.4 -8.19564e-008
v 0.7 0.4 -8.19564e-008
v 0.8 0.4 -8.19564e-008
v -0.6 0.1 0.5
v -0.3 0.1 0.5
v 0.3 0.1 0.5
v 0.6 0.1 0.5
v -0.5 0.1 0.3
v -0.4 0.1 0.3
v 0.4 0.1 0.3
v 0.5 0.1 0.3
v -0.6 0.1 0.2
v -0.5 0.1 0.2
v -0.4 0.1 0.2
v -0.3 0.1 0.2
v 0.3 0.1 0.2
v 0.4 0.1 0.2
v 0.5 0.1 0.2
v 0.6 0.1 0.2
v -0.8 1.4 0.6
v -0.7 1.4 0.6
v 0.7 1.4 0.6
v 0.8 1.4 0.6
v -0.8 1.4 -8.19564e-008
v -0.7 1.4 -8.19564e-008
v 0.7 1.4 -8.19564e-008
v 0.8 1.4 -8.19564e-008
v -0.7 1.5 0.6
v -0.6 1.5 0.6
v 0.6 1.5 0.6
v 0.7 1.5 0.6
v -0.7 1.5 -8.19564e-008
v -0.6 1.5 -8.19564e-008
v 0.6 1.5 -8.19564e-008
v 0.7 1.5 -8.19564e-008
v -0.6 1.6 0.6
v -0.5 1.6 0.6
v 0.5 1.6 0.6
v 0.6 1.6 0.6
v -0.6 1.6 -8.19564e-008
v -0.5 1.6 -8.19564e-008
v 0.5 1.6 -8.19564e-008
v 0.6 1.6 -8.19564e-008
v -0.5 1.7 0.6
v -0.3 1.7 0.6
v 0.3 1.7 0.6
v 0.5 1.7 0.6
v -0.5 1.7 -8.19564e-008
v -0.3 1.7 -8.19564e-008
v 0.3 1.7 -8.19564e-008
v 0.5 1.7 -8.19564e-008
v -0.3 1.8 0.6
v 0.3 1.8 0.6
v -0.3 1.8 -8.19564e-008
v 0.3 1.8 -8.19564e-008

# faces
f 3/2/1 2/2/1 1/2/1
f 4/2/1 2/2/1 3/2/1
f 7/2/1 6/2/1 5/2/1
f 8/2/1 6/2/1 7/2/1
f 11/2/1 10/2/1 9/2/1
f 12/2/1 10/2/1 11/2/1
f 15/5/1 14/5/1 13/5/1
f 16/5/1 14/5/1 15/5/1
f 19/2/1 18/2/1 17/2/1
f 20/2/1 18/2/1 19/2/1
f 23/2/1 22/2/1 21/2/1
f 24/2/1 22/2/1 23/2/1
f 27/5/1 26/5/1 25/5/1
f 28/5/1 26/5/1 27/5/1
f 31/2/1 30/2/1 29/2/1
f 32/2/1 30/2/1 31/2/1
f 35/2/1 34/2/1 33/2/1
f 36/2/1 34/2/1 35/2/1
f 39/5/1 38/5/1 37/5/1
f 40/5/1 38/5/1 39/5/1
f 43/5/1 42/5/1 41/5/1
f 44/5/1 42/5/1 43/5/1
f 45/5/2 46/5/2 47/5/2
f 47/5/2 46/5/2 48/5/2
f 49/5/2 50/5/2 51/5/2
f 51/5/2 50/5/2 52/5/2
f 53/2/2 54/2/2 55/2/2
f 55/2/2 54/2/2 56/2/2
f 57/5/2 58/5/2 59/5/2
f 59/5/2 58/5/2 60/5/2
f 61/2/2 62/2/2 63/2/2
f 63/2/2 62/2/2 64/2/2
f 65/5/2 66/5/2 67/5/2
f 67/5/2 66/5/2 68/5/2
f 69/2/2 70/2/2 71/2/2
f 71/2/2 70/2/2 72/2/2
f 73/2/2 74/2/2 75/2/2
f 75/2/2 74/2/2 76/2/2
f 77/2/2 78/2/2 79/2/2
f 79/2/2 78/2/2 80/2/2
f 81/2/2 82/2/2 83/2/2
f 83/2/2 82/2/2 84/2/2
f 85/2/2 86/2/2 87/2/2
f 87/2/2 86/2/2 88/2/2
f 92/2/3 90/2/3 89/2/3
f 93/2/3 90/2/3 92/2/3
f 94/2/3 90/2/3 93/2/3
f 95/2/3 90/2/3 94/2/3
f 98/2/3 92/2/3 91/2/3
f 98/2/3 93/2/3 92/2/3
f 99/2/3 93/2/3 98/2/3
f 100/1/3 94/1/3 93/1/3
f 100/2/3 93/2/3 99/2/3
f 101/2/3 96/2/3 95/2/3
f 101/1/3 94/1/3 100/1/3
f 101/2/3 95/2/3 94/2/3
f 102/2/3 96/2/3 101/2/3
f 103/2/3 96/2/3 102/2/3
f 105/2/3 98/2/3 97/2/3
f 105/2/3 99/2/3 98/2/3
f 106/1/3 100/1/3 99/1/3
f 106/2/3 99/2/3 105/2/3
f 106/1/3 101/1/3 100/1/3
f 106/1/3 102/1/3 101/1/3
f 107/2/3 104/2/3 103/2/3
f 107/1/3 102/1/3 106/1/3
f 107/2/3 103/2/3 102/2/3
f 108/2/3 104/2/3 107/2/3
f 109/2/3 104/2/3 108/2/3
f 111/2/3 105/2/3 97/2/3
f 112/1/3 106/1/3 105/1/3
f 112/2/3 105/2/3 111/2/3
f 112/1/3 107/1/3 106/1/3
f 112/1/3 108/1/3 107/1/3
f 113/2/3 110/2/3 109/2/3
f 113/1/3 108/1/3 112/1/3
f 113/2/3 109/2/3 108/2/3
f 114/2/3 110/2/3 113/2/3
f 115/1/3 112/1/3 111/1/3
f 115/1/3 113/1/3 112/1/3
f 115/1/3 114/1/3 113/1/3
f 116/1/3 114/1/3 115/1/3
f 117/1/3 114/1/3 116/1/3
f 118/1/3 114/1/3 117/1/3
f 119/2/3 110/2/3 114/2/3
f 121/1/3 115/1/3 111/1/3
f 122/4/3 116/4/3 115/4/3
f 122/1/3 115/1/3 121/1/3
f 123/1/3 117/1/3 116/1/3
f 123/4/3 116/4/3 122/4/3
f 124/4/3 118/4/3 117/4/3
f 124/1/3 117/1/3 123/1/3
f 125/1/3 114/1/3 118/1/3
f 125/4/3 118/4/3 124/4/3
f 126/1/3 121/1/3 111/1/3
f 127/4/3 122/4/3 121/4/3
f 127/1/3 121/1/3 126/1/3
f 128/1/3 126/1/3 111/1/3
f 128/3/3 127/3/3 126/3/3
f 129/4/3 122/4/3 127/4/3
f 129/3/3 127/3/3 128/3/3
f 130/1/3 129/1/3 128/1/3
f 130/4/3 122/4/3 129/4/3
f 131/1/3 124/1/3 123/1/3
f 131/4/3 122/4/3 130/4/3
f 131/1/3 123/1/3 122/1/3
f 131/1/3 125/1/3 124/1/3
f 132/1/3 125/1/3 131/1/3
f 133/1/3 125/1/3 132/1/3
f 134/1/3 114/1/3 125/1/3
f 134/1/3 125/1/3 133/1/3
f 135/1/3 131/1/3 130/1/3
f 135/4/3 132/4/3 131/4/3
f 136/1/3 133/1/3 132/1/3
f 136/4/3 132/4/3 135/4/3
f 137/4/3 134/4/3 133/4/3
f 137/1/3 133/1/3 136/1/3
f 138/1/3 114/1/3 134/1/3
f 138/4/3 134/4/3 137/4/3
f 139/2/3 120/2/3 119/2/3
f 139/2/3 119/2/3 114/2/3
f 140/2/3 120/2/3 139/2/3
f 141/1/3 130/1/3 128/1/3
f 141/2/3 111/2/3 97/2/3
f 141/1/3 135/1/3 130/1/3
f 141/1/3 136/1/3 135/1/3
f 141/1/3 137/1/3 136/1/3
f 141/1/3 138/1/3 137/1/3
f 141/1/3 128/1/3 111/1/3
f 142/1/3 138/1/3 141/1/3
f 143/1/3 114/1/3 138/1/3
f 143/1/3 138/1/3 142/1/3
f 144/2/3 139/2/3 114/2/3
f 144/1/3 114/1/3 143/1/3
f 145/1/3 143/1/3 142/1/3
f 145/2/3 142/2/3 141/2/3
f 146/1/3 143/1/3 145/1/3
f 147/1/3 143/1/3 146/1/3
f 148/2/3 144/2/3 143/2/3
f 148/1/3 143/1/3 147/1/3
f 149/2/3 139/2/3 144/2/3
f 149/2/3 144/2/3 148/2/3
f 150/2/3 139/2/3 149/2/3
f 151/2/3 141/2/3 97/2/3
f 151/2/3 145/2/3 141/2/3
f 151/2/3 146/2/3 145/2/3
f 152/2/3 146/2/3 151/2/3
f 153/1/3 147/1/3 146/1/3
f 153/2/3 146/2/3 152/2/3
f 154/1/3 147/1/3 153/1/3
f 155/1/3 147/1/3 154/1/3
f 156/2/3 148/2/3 147/2/3
f 156/1/3 147/1/3 155/1/3
f 156/2/3 149/2/3 148/2/3
f 157/2/3 149/2/3 156/2/3
f 158/2/3 149/2/3 157/2/3
f 159/2/3 154/2/3 153/2/3
f 159/2/3 153/2/3 152/2/3
f 160/2/3 154/2/3 159/2/3
f 161/1/3 155/1/3 154/1/3
f 161/2/3 154/2/3 160/2/3
f 162/2/3 157/2/3 156/2/3
f 162/1/3 155/1/3 161/1/3
f 162/2/3 156/2/3 155/2/3
f 163/2/3 157/2/3 162/2/3
f 164/2/3 157/2/3 163/2/3
f 165/2/3 161/2/3 160/2/3
f 165/2/3 163/2/3 162/2/3
f 165/2/3 162/2/3 161/2/3
f 166/2/3 163/2/3 165/2/3
f 169/5/3 168/5/3 167/5/3
f 170/5/3 168/5/3 169/5/3
f 173/5/3 172/5/3 171/5/3
f 174/5/3 172/5/3 173/5/3
f 177/5/3 176/5/3 175/5/3
f 178/5/3 176/5/3 177/5/3
f 181/5/3 180/5/3 179/5/3
f 182/5/3 180/5/3 181/5/3
f 183/5/4 184/5/4 185/5/4
f 183/5/4 185/5/4 187/5/4
f 185/5/4 186/5/4 187/5/4
f 187/5/4 186/5/4 188/5/4
f 183/5/4 187/5/4 189/5/4
f 189/5/4 187/5/4 190/5/4
f 191/5/4 192/5/4 193/5/4
f 191/5/4 193/5/4 195/5/4
f 193/5/4 194/5/4 195/5/4
f 195/5/4 194/5/4 196/5/4
f 191/5/4 195/5/4 197/5/4
f 197/5/4 195/5/4 198/5/4
f 199/2/4 200/2/4 202/2/4
f 202/2/4 200/2/4 203/2/4
f 201/2/4 202/2/4 206/2/4
f 203/2/4 204/2/4 206/2/4
f 202/2/4 203/2/4 206/2/4
f 206/2/4 204/2/4 207/2/4
f 205/2/4 206/2/4 209/2/4
f 207/2/4 208/2/4 209/2/4
f 206/2/4 207/2/4 209/2/4
f 209/2/4 210/2/4 211/2/4
f 209/2/4 211/2/4 213/2/4
f 211/2/4 212/2/4 213/2/4
f 213/2/4 212/2/4 214/2/4
f 205/2/4 209/2/4 215/2/4
f 209/2/4 213/2/4 215/2/4
f 215/2/4 213/2/4 216/2/4
f 205/2/4 215/2/4 217/2/4
f 217/2/4 215/2/4 218/2/4
f 218/2/4 215/2/4 219/2/4
f 219/2/4 215/2/4 220/2/4
f 218/2/4 219/2/4 221/2/4
f 221/2/4 219/2/4 222/2/4
f 222/2/4 219/2/4 223/2/4
f 223/2/4 219/2/4 224/2/4
f 222/2/4 223/2/4 225/2/4
f 225/2/4 223/2/4 226/2/4
f 231/5/5 228/5/5 227/5/5
f 232/5/5 228/5/5 231/5/5
f 233/5/5 230/5/5 229/5/5
f 234/5/5 230/5/5 233/5/5
f 237/2/5 236/2/5 235/2/5
f 238/2/5 236/2/5 237/2/5
f 239/2/5 236/2/5 238/2/5
f 240/2/5 236/2/5 239/2/5
f 241/2/5 237/2/5 235/2/5
f 242/2/5 239/2/5 238/2/5
f 243/2/5 239/2/5 242/2/5
f 244/2/5 236/2/5 240/2/5
f 245/2/5 243/2/5 242/2/5
f 245/2/5 244/2/5 243/2/5
f 245/2/5 241/2/5 235/2/5
f 245/2/5 242/2/5 241/2/5
f 246/2/5 236/2/5 244/2/5
f 246/2/5 244/2/5 245/2/5
f 251/2/5 248/2/5 247/2/5
f 252/2/5 248/2/5 251/2/5
f 253/2/5 250/2/5 249/2/5
f 254/2/5 250/2/5 253/2/5
f 259/2/5 256/2/5 255/2/5
f 260/2/5 256/2/5 259/2/5
f 261/2/5 258/2/5 257/2/5
f 262/2/5 258/2/5 261/2/5
f 263/5/6 264/5/6 267/5/6
f 267/5/6 264/5/6 268/5/6
f 265/5/6 266/5/6 269/5/6
f 269/5/6 266/5/6 270/5/6
f 263/5/6 267/5/6 271/5/6
f 271/5/6 267/5/6 272/5/6
f 268/5/6 264/5/6 273/5/6
f 273/5/6 264/5/6 274/5/6
f 265/5/6 269/5/6 275/5/6
f 275/5/6 269/5/6 276/5/6
f 270/5/6 266/5/6 277/5/6
f 277/5/6 266/5/6 278/5/6
f 279/2/6 280/2/6 283/2/6
f 283/2/6 280/2/6 284/2/6
f 281/2/6 282/2/6 285/2/6
f 285/2/6 282/2/6 286/2/6
f 287/2/6 288/2/6 291/2/6
f 291/2/6 288/2/6 292/2/6
f 289/2/6 290/2/6 293/2/6
f 293/2/6 290/2/6 294/2/6
f 295/2/6 296/2/6 299/2/6
f 299/2/6 296/2/6 300/2/6
f 297/2/6 298/2/6 301/2/6
f 301/2/6 298/2/6 302/2/6
f 303/2/6 304/2/6 307/2/6
f 307/2/6 304/2/6 308/2/6
f 305/2/6 306/2/6 309/2/6
f 309/2/6 306/2/6 310/2/6
f 311/2/6 312/2/6 313/2/6
f 313/2/6 312/2/6 314/2/6
